PathFileType	4	(X/Y/Z)	/Users/visionmauri/Downloads/Videos/OAW03-top_Sports2D/OAW03-top_Sports2D_m_person00.trc
DataRate	CameraRate	NumFrames	NumMarkers	Units	OrigDataRate	OrigDataStartFrame	OrigNumFrames
30.0	30.0	11	22	m	30.0	1877	2146
Frame#	Time	Hip			RHip			RKnee			RAnkle			RBigToe			RSmallToe			RHeel			LHip			LKnee			LAnkle			LBigToe			LSmallToe			LHeel			Neck			Head			Nose			RShoulder			RElbow			RWrist			LShoulder			LElbow			LWrist			
		X1	Y1	Z1	X2	Y2	Z2	X3	Y3	Z3	X4	Y4	Z4	X5	Y5	Z5	X6	Y6	Z6	X7	Y7	Z7	X8	Y8	Z8	X9	Y9	Z9	X10	Y10	Z10	X11	Y11	Z11	X12	Y12	Z12	X13	Y13	Z13	X14	Y14	Z14	X15	Y15	Z15	X16	Y16	Z16	X17	Y17	Z17	X18	Y18	Z18	X19	Y19	Z19	X20	Y20	Z20	X21	Y21	Z21	X22	Y22	Z22
1877	62.59583527583528	2.8397196274417116	-0.24472638400462912	0.0301	2.945641305758882	-0.12644252011003151	0.0301	3.3413086240281684	-0.4786597894806156	0.129	3.7189591360155485	-0.8388599125614877	0.023	3.788667024998984	-0.962488139125506	0.2179	3.882544505074213	-0.8933809664692682	0.1804	3.792968724217419	-0.9194220039117067	-0.0119	2.7402926551084987	-0.3534787044296068	0.0301	3.080759537797832	-0.6009054054434622	0.129	3.4091136566234788	-0.8181065143009449	0.023	3.432636529611845	-0.8074937051320585	0.2179	3.408834840411136	-0.8898932213838177	0.1804	3.4890258062707833	-0.8701894664079538	-0.0119	2.1720687483606063	0.3547112268023624	0.0008	1.880972564787828	0.5895507660890863	0.0655	2.0575779750966237	0.43788553197446434	0.1076	2.4809178798114044	0.4743527902896317	-0.01275	2.858135401062922	0.26523833383985235	0.0702	3.086848345553713	0.04483590579543412	0.1076	2.092225444240684	0.0674938081877277	-0.01275	2.330473718517005	-0.29201882156092107	0.0702	2.523647681513415	-0.5809451860785144	0.1076
1878	62.62918414918415	2.8366598188863965	-0.2402536996886896	0.0301	2.9416522577134585	-0.12325829235572121	0.0301	3.333359324429015	-0.4724640877410994	0.129	3.7156326591177824	-0.8359448309693194	0.023	3.7845946322269297	-0.9590480622598796	0.2179	3.880356613871463	-0.8957828429524839	0.1804	3.7901102984232113	-0.9181159164682569	-0.0119	2.7387057285074325	-0.3471274009260528	0.0301	3.063272848989402	-0.576833754299783	0.129	3.3752072901958177	-0.774424008112317	0.023	3.3949271560356498	-0.7525644765798593	0.2179	3.371117481173594	-0.837234402994523	0.1804	3.455858954874833	-0.819651594443233	-0.0119	2.16327410463642	0.3541914971179379	0.0008	1.8785434929324902	0.5822932413826266	0.0655	2.0526120705582933	0.4290635192932914	0.1076	2.470702739589206	0.47313985773513806	-0.01275	2.8425214345220318	0.2721447381842997	0.0702	3.068266219493773	0.04957638300889412	0.1076	2.0893030368157812	0.07029341072911299	-0.01275	2.3232992198989466	-0.28533884762986716	0.0702	2.506683052518465	-0.5817512347053448	0.1076
1879	62.66253302253302	2.8348741401824884	-0.2353339201389071	0.0301	2.9380763664985023	-0.11836424713682939	0.0301	3.326763640671902	-0.4650048792234942	0.129	3.706093869114829	-0.826719183610478	0.023	3.7831529255477863	-0.959111738628115	0.2179	3.873435432661521	-0.8968031972347178	0.1804	3.7800915603675396	-0.9148512935487098	-0.0119	2.739059052168261	-0.3408546225360755	0.0301	3.054254170339603	-0.5587632238301611	0.129	3.3576668543509705	-0.7421016822566497	0.023	3.3882180559049453	-0.7210623258933656	0.2179	3.35982153586159	-0.8114652049026487	0.1804	3.446265181085807	-0.7868778086802025	-0.0119	2.157247287974592	0.3489760018785835	0.0008	1.8733820612697019	0.5703827485140084	0.0655	2.049671416155904	0.4197148486869887	0.1076	2.459097419903011	0.47039413724515855	-0.01275	2.826140272088652	0.27705757426364275	0.0702	3.052985267490533	0.0535273998309754	0.1076	2.084405747226065	0.06832453330638674	-0.01275	2.3125135932860625	-0.28177867029303927	0.0702	2.492711923128733	-0.5848747555847795	0.1076
1880	62.6958818958819	2.829094252531792	-0.2271031066334935	0.0301	2.930256510254787	-0.11026606751142277	0.0301	3.3176370715576446	-0.45369821053925435	0.129	3.6913161030583233	-0.8116460635695878	0.023	3.777713807052099	-0.9530752697024377	0.2179	3.8600082676986918	-0.8905759322864899	0.1804	3.764057744653671	-0.9036987232403106	-0.0119	2.736258393644943	-0.33245325750662663	0.0301	3.052169187190621	-0.5432688520046203	0.129	3.353683046286241	-0.7188319256199999	0.023	3.3955640091178934	-0.7094814337715548	0.2179	3.3661011063940784	-0.8049096759553799	0.1804	3.449480645726583	-0.7672096344042982	-0.0119	2.1533106364932504	0.3429361521733416	0.0008	1.8684188471555119	0.559448843238074	0.0655	2.046655368261736	0.4123702373663809	0.1076	2.4459284963843366	0.46679765184483407	-0.01275	2.81286776760491	0.27926421228397086	0.0702	3.038369368174966	0.057095343183502664	0.1076	2.0800066124332712	0.06434469579183082	-0.01275	2.3011269685348457	-0.2813202213756402	0.0702	2.478906459468786	-0.5894293744432552	0.1076
1881	62.72923076923077	2.8174317304647634	-0.21494431855183818	0.0301	2.9160344357311065	-0.09832622392674942	0.0301	3.302427071754618	-0.4375356488769731	0.129	3.6753521547583454	-0.7944441016888202	0.023	3.7564237470038933	-0.9320118803972488	0.2179	3.838165507893489	-0.873755125268539	0.1804	3.74706498593161	-0.8852554773281044	-0.0119	2.727096017848982	-0.3201565252358207	0.0301	3.0492637871725172	-0.5252885619215556	0.129	3.3498341455206893	-0.7000215393731435	0.023	3.3968860003818353	-0.7060264864263862	0.2179	3.3685833001731926	-0.8007072081117398	0.1804	3.4464214519499308	-0.7508227775555062	-0.0119	2.1470856100496962	0.3397223172351073	0.0008	1.8650456787936684	0.5544515248683067	0.0655	2.0408336468887818	0.4077352646703953	0.1076	2.43206941084552	0.463612928803952	-0.01275	2.8033626100320017	0.2795169107747575	0.0702	3.0203502622887295	0.06345546960581674	0.1076	2.0763858540014244	0.06249858542209181	-0.01275	2.291405293676253	-0.2804348293074319	0.0702	2.4601505114967646	-0.5898192509518588	0.1076
1882	62.76257964257964	2.8012700013932057	-0.20075199215885883	0.0301	2.896520642672552	-0.08319350890908313	0.0301	3.2809565910689096	-0.41630271539103575	0.129	3.6579330593925974	-0.7747368519685828	0.023	3.723807574045163	-0.9032638919533159	0.2179	3.8110520492411033	-0.848888609630069	0.1804	3.732601804654559	-0.8618761837087614	-0.0119	2.7110642043229767	-0.30419193427279395	0.0301	3.0394566233663376	-0.5058541847011501	0.129	3.340800712755898	-0.6872779293112027	0.023	3.3871771724354964	-0.7024425536960733	0.2179	3.3562189946426795	-0.7927841385108796	0.1804	3.4333589993267006	-0.73833778596153	-0.0119	2.1364452257505695	0.3394823381985718	0.0008	1.8559389629962177	0.5530359506319127	0.0655	2.028489148730427	0.40727447171551756	0.1076	2.417642915790037	0.4641647353014684	-0.01275	2.7903792900378077	0.2822803688579901	0.0702	2.9981536439710323	0.07572402911123424	0.1076	2.0695184613301127	0.06470811260246594	-0.01275	2.2812047223277587	-0.27472690846565073	0.0702	2.438777128719935	-0.5832250313324722	0.1076
1883	62.795928515928516	2.7817703155603386	-0.1871173203741402	0.0301	2.874980210712472	-0.06734455402592719	0.0301	3.2558285654164405	-0.3912513105316266	0.129	3.634392501488846	-0.7476636670402113	0.023	3.69367596281358	-0.8776122000739104	0.2179	3.7818177109108073	-0.8194471650866706	0.1804	3.7169132075035343	-0.8314050595441198	-0.0119	2.6911177047527675	-0.28779020669338196	0.0301	3.0244897165754563	-0.4914690059156876	0.129	3.3309917049442985	-0.6822408769109118	0.023	3.3732459149961755	-0.6995138093954012	0.2179	3.3392046026364754	-0.7865947805339923	0.1804	3.4195178868197673	-0.7318738438709382	-0.0119	2.1237778028774157	0.34119536585555393	0.0008	1.838212601177168	0.5496678376966869	0.0655	2.0104585129207346	0.4088344975898979	0.1076	2.4015630009687867	0.4701945890904569	-0.01275	2.7681674580280924	0.2898806965736359	0.0702	2.975789057708962	0.09234910658315754	0.1076	2.05787480088643	0.06968462940576033	-0.01275	2.2681952235328224	-0.26470978639855697	0.0702	2.4210674710841573	-0.5716410005803737	0.1076
1884	62.82927738927739	2.7598534505465726	-0.17405753775312827	0.0301	2.85331094519171	-0.05367453991397665	0.0301	3.226948185198315	-0.3641869684869454	0.129	3.5991125030229245	-0.7089944640778556	0.023	3.6599159632741873	-0.8466490257761096	0.2179	3.7434185633182455	-0.7804971624770105	0.1804	3.689511324236185	-0.7882272476132572	-0.0119	2.671276473083842	-0.27360782414883694	0.0301	3.0097408362930045	-0.4857107173201392	0.129	3.3232093496831605	-0.6819322313901814	0.023	3.3600729476278595	-0.6971690847677952	0.2179	3.328825102935291	-0.7835021901398145	0.1804	3.4103475461478716	-0.7279153781780808	-0.0119	2.1113491397711166	0.34475341950671756	0.0008	1.821193529744851	0.543698151396148	0.0655	1.9945033127053267	0.40739143714098874	0.1076	2.3829425445812094	0.479816105170961	-0.01275	2.741254103190659	0.29828918519140235	0.0702	2.9574061155008446	0.10800349472253981	0.1076	2.045407262186387	0.07609274699647166	-0.01275	2.2544816769441898	-0.25490523822724787	0.0702	2.4086014181021307	-0.557391112694059	0.1076
1885	62.862626262626264	2.735594847096149	-0.1589924257876863	0.0301	2.8287999277080265	-0.04203033266738983	0.0301	3.1898823706804422	-0.33504324602470814	0.129	3.5468583858002267	-0.6568612982022229	0.023	3.607528866171218	-0.7974008731983512	0.2179	3.6892458816002183	-0.72621681965906	0.1804	3.64202778475684	-0.7292980388319267	-0.0119	2.6510255640701414	-0.2599382153467501	0.0301	2.9956524155500737	-0.4841389715976811	0.129	3.317846526946166	-0.6832453369394598	0.023	3.3470537054887046	-0.6915316158131527	0.2179	3.322806522623463	-0.7790638845502083	0.1804	3.4049906265493823	-0.724059668486134	-0.0119	2.098362717248101	0.3511788887887803	0.0008	1.8131829059512883	0.5393801491003883	0.0655	1.9859099181196906	0.4047285426321365	0.1076	2.362621115351238	0.49054908387452373	-0.01275	2.716145072749674	0.30436426402779804	0.0702	2.9431146996571766	0.11972385081300937	0.1076	2.0347404213590408	0.0850450403953094	-0.01275	2.2436017385856264	-0.24649967154749647	0.0702	2.3989934344860426	-0.540033354898082	0.1076
1886	62.895975135975135	2.7085680990189718	-0.14155649942155188	0.0301	2.7985022135093764	-0.028823694525057064	0.0301	3.1442330684942283	-0.30461340390670855	0.129	3.480596615143611	-0.5958152122345448	0.023	3.54526026089751	-0.7384223146448888	0.2179	3.629044514036146	-0.6656631979505314	0.1804	3.57829403260288	-0.661568782161522	-0.0119	2.626312122111546	-0.2442546457778917	0.0301	2.9792492542589053	-0.47983729727761665	0.129	3.3158169101156663	-0.6843788246667036	0.023	3.337765457052705	-0.6846040917508435	0.2179	3.3182771607886306	-0.7741428081900917	0.1804	3.4030883014690447	-0.7221880304013177	-0.0119	2.0848806316289474	0.36046379071600876	0.0008	1.810648638872662	0.5402649595492511	0.0655	1.981235360218255	0.40911510892840103	0.1076	2.342227894589055	0.5013772654718535	-0.01275	2.692028093685836	0.3123638405044734	0.0702	2.929164108732478	0.13013851292755643	0.1076	2.023482456598947	0.09787195549931378	-0.01275	2.234754371747734	-0.23348020425531937	0.0702	2.3912221415586394	-0.5170930187473477	0.1076
1887	62.929324009324006	2.680851929600784	-0.1255294230234397	0.0301	2.76533741313218	-0.012896772788702696	0.0301	3.0992545990126783	-0.2777885486651404	0.129	3.415311562474599	-0.5397394925427657	0.023	3.4944277275567948	-0.6872026049417468	0.2179	3.5783231501496413	-0.614854113993984	0.1804	3.512672786388072	-0.601843003141612	-0.0119	2.5961495322489747	-0.22828571130042027	0.0301	2.9615396159822613	-0.47183723499711333	0.129	3.316096481680574	-0.6846824425129653	0.023	3.3372813797518823	-0.6822902713747523	0.2179	3.317930944868213	-0.7735322626907052	0.1804	3.404953436312572	-0.7245955144659113	-0.0119	2.0730517329493163	0.3700631363927358	0.0008	1.8065930905337948	0.5456410894514507	0.0655	1.975359554364186	0.4222805576763772	0.1076	2.323326565030971	0.5115262050186692	-0.01275	2.668390209697424	0.3252016993985385	0.0702	2.9133745447825774	0.14182828853373464	0.1076	2.0093322180024766	0.11277872762699656	-0.01275	2.2252259344110388	-0.21172749945874295	0.0702	2.3861917452786603	-0.4878966791827112	0.1076
